# xmcd
#
# Track frame offsets:
#  150
#  11825
#  24588
#  36069
#  47076
#  60591
#  72449
#  85002
#  97430
#  110512
#  122591
#  132141
#  141587
#  151801
#  164856
#  180446
#  193891
#  205943
#  219262
#  231760
#  241361
#  254096
#  263726
#
# Disc length: 3657 seconds
#
# Revision: 0
# Processed by: cddbd v1.5.1PL2 Copyright (c) Steve Scherf et al.
# Submitted via: Collectorz.com_Music_Collector 6.9
#
DISCID=560e4717
DTITLE=Various Artist - Country Instrumentials
DYEAR=1957
DGENRE=Country
TTITLE0=Twin Fiddle Polka Spicher
TTITLE1=Boot Heel Drag Wills
TTITLE2=Playboy Chimes Wills
TTITLE3=The Bunny Hop Wills
TTITLE4=Spanish Two Step Wills
TTITLE5=Drag That Fiddle Penny Harr
TTITLE6=Silver Bells Wills
TTITLE7=08 Beaumont Rag Wills - Texas
TTITLE8=Texas Playboy Rag Wills 
TTITLE9=Steel Guitar Rag Bob Leon
TTITLE10=Randy Lynn Rag
TTITLE11=Shuckin' The Corn
TTITLE12=Steel Guitar Wooble Al Pett
TTITLE13=Guitar Polka Dexter
TTITLE14=Guitar Boogie Arthur Smith
TTITLE15=Black Mountain Rag Acuff
TTITLE16=San. Rose Wills
TTITLE17=Steel Guitar Stomp Penny No
TTITLE18=Fire on the Strings Maphis
TTITLE19=Buckaroos
TTITLE20=Remington Ride Penny
TTITLE21=Three Fiddle Swing Spicher
TTITLE22=Foggy Mountain Breakdown
EXTD=
EXTT0=
EXTT1=
EXTT2=
EXTT3=
EXTT4=
EXTT5=
EXTT6=
EXTT7=
EXTT8=
EXTT9=
EXTT10=
EXTT11=
EXTT12=
EXTT13=
EXTT14=
EXTT15=
EXTT16=
EXTT17=
EXTT18=
EXTT19=
EXTT20=
EXTT21=
EXTT22=
PLAYORDER=
